ffmpeg started on 2025-06-07 at 17:31:11
Report written to "D:\Convert\FFMetrics\reports\psnr_report-6.txt"
Log level: 32
Command line:
ffmpeg -hide_banner -nostdin -i "G:\\\xc0\xed\xe8\xec\xe5\\\xce\xed\xe3\xee\xe8\xed\xe3\xe8\\!_36_\xce\xf1\xe5\xed\xfc_2024\\DreamCast\\\xdd\xe9, \xd2\xee\xec\xe1\xee!\\\xd2\xc2-2\\[DC] Tonbo 2 - 01_Telegram_HEVC.mkv" -i "G:\\\xc0\xed\xe8\xec\xe5\\\xce\xed\xe3\xee\xe8\xed\xe3\xe8\\!_36_\xce\xf1\xe5\xed\xfc_2024\\DreamCast\\\xdd\xe9, \xd2\xee\xec\xe1\xee!\\\xd2\xc2-2\\[DC] Tonbo 2 - 01_Telegram.mp4" -lavfi "[0:v]settb=AVTB,setpts=PTS-STARTPTS,format=pix_fmts=yuv420p10,fps=24000/1001,scale=1920:1080:flags=bicubic[main];[1:v]settb=AVTB,setpts=PTS-STARTPTS,format=pix_fmts=yuv420p,fps=24000/1001,scale=1920:1080:flags=bicubic[ref];[main][ref]psnr=eof_action=endall:stats_file='D\\:/Convert/FFMetrics/logs/psnr_logfile-6.txt'" -f null -
Input #0, matroska,webm, from 'G:\Аниме\Онгоинги\!_36_Осень_2024\DreamCast\Эй, Томбо!\ТВ-2\[DC] Tonbo 2 - 01_Telegram_HEVC.mkv':
  Metadata:
    COMPATIBLE_BRANDS: isomiso2avc1mp41
    MAJOR_BRAND     : isom
    MINOR_VERSION   : 512
    ENCODER         : Lavf61.7.100
  Duration: 00:24:20.69, start: -0.021000, bitrate: 1474 kb/s
  Stream #0:0: Video: hevc (Main 10), yuv420p10le(tv, bt709, progressive), 1920x1080 [SAR 1:1 DAR 16:9], 23.98 fps, 23.98 tbr, 1k tbn (default)
      Metadata:
        HANDLER_NAME    : VideoHandler
        VENDOR_ID       : [0][0][0][0]
        ENCODER         : Lavc61.19.100 libx265
        BPS             : 1278246
        DURATION        : 00:24:19.582708333
        NUMBER_OF_FRAMES: 34995
        NUMBER_OF_BYTES : 233213125
        _STATISTICS_WRITING_APP: mkvpropedit v66.0.0 ('Josie') 64-bit
        _STATISTICS_WRITING_DATE_UTC: 2025-06-06 06:35:50
        _STATISTICS_TAGS: BPS DURATION NUMBER_OF_FRAMES NUMBER_OF_BYTES
  Stream #0:1: Audio: aac (LC), 48000 Hz, stereo, fltp (default)
      Metadata:
        HANDLER_NAME    : SoundHandler
        VENDOR_ID       : [0][0][0][0]
        ENCODER         : Lavc61.19.100 aac
        BPS             : 192847
        DURATION        : 00:24:20.693000000
        NUMBER_OF_FRAMES: 68471
        NUMBER_OF_BYTES : 35211378
        _STATISTICS_WRITING_APP: mkvpropedit v66.0.0 ('Josie') 64-bit
        _STATISTICS_WRITING_DATE_UTC: 2025-06-06 06:35:50
        _STATISTICS_TAGS: BPS DURATION NUMBER_OF_FRAMES NUMBER_OF_BYTES
Input #1, mov,mp4,m4a,3gp,3g2,mj2, from 'G:\Аниме\Онгоинги\!_36_Осень_2024\DreamCast\Эй, Томбо!\ТВ-2\[DC] Tonbo 2 - 01_Telegram.mp4':
  Metadata:
    major_brand     : isom
    minor_version   : 512
    compatible_brands: isomiso2avc1mp41
    encoder         : Lavf61.1.100
  Duration: 00:24:20.67, start: 0.000000, bitrate: 3912 kb/s
  Stream #1:0[0x1](und): Video: h264 (High) (avc1 / 0x31637661), yuv420p(tv, bt709, progressive), 1920x1080 [SAR 1:1 DAR 16:9], 3767 kb/s, 23.98 fps, 23.98 tbr, 24k tbn (default)
      Metadata:
        handler_name    : VideoHandler
        vendor_id       : [0][0][0][0]
        encoder         : Lavc61.3.100 h264_qsv
  Stream #1:1[0x2](und): Audio: aac (HE-AACv2) (mp4a / 0x6134706D), 48000 Hz, stereo, fltp, 144 kb/s (default)
      Metadata:
        handler_name    : SoundHandler
        vendor_id       : [0][0][0][0]
Stream mapping:
  Stream #0:0 (hevc) -> settb:default
  Stream #1:0 (h264) -> settb:default
  psnr:default -> Stream #0:0 (wrapped_avframe)
  Stream #0:1 -> #0:1 (aac (native) -> pcm_s16le (native))
Output #0, null, to 'pipe:':
  Metadata:
    COMPATIBLE_BRANDS: isomiso2avc1mp41
    MAJOR_BRAND     : isom
    MINOR_VERSION   : 512
    encoder         : Lavf61.7.100
  Stream #0:0: Video: wrapped_avframe, yuv420p10le(tv, bt709, progressive), 1920x1080 [SAR 1:1 DAR 16:9], q=2-31, 200 kb/s, 23.98 fps, 23.98 tbn
      Metadata:
        encoder         : Lavc61.19.100 wrapped_avframe
  Stream #0:1: Audio: pcm_s16le, 48000 Hz, stereo, s16, 1536 kb/s (default)
      Metadata:
        HANDLER_NAME    : SoundHandler
        VENDOR_ID       : [0][0][0][0]
        _STATISTICS_TAGS: BPS DURATION NUMBER_OF_FRAMES NUMBER_OF_BYTES
        BPS             : 192847
        DURATION        : 00:24:20.693000000
        NUMBER_OF_FRAMES: 68471
        NUMBER_OF_BYTES : 35211378
        _STATISTICS_WRITING_APP: mkvpropedit v66.0.0 ('Josie') 64-bit
        _STATISTICS_WRITING_DATE_UTC: 2025-06-06 06:35:50
        encoder         : Lavc61.19.100 pcm_s16le
frame=  167 fps=0.0 q=-0.0 size=N/A time=00:00:06.96 bitrate=N/A speed=13.3x    frame=  345 fps=329 q=-0.0 size=N/A time=00:00:14.38 bitrate=N/A speed=13.7x    frame=  540 fps=346 q=-0.0 size=N/A time=00:00:22.52 bitrate=N/A speed=14.4x    frame=  714 fps=342 q=-0.0 size=N/A time=00:00:29.77 bitrate=N/A speed=14.3x    frame=  940 fps=362 q=-0.0 size=N/A time=00:00:39.20 bitrate=N/A speed=15.1x    frame= 1179 fps=379 q=-0.0 size=N/A time=00:00:49.17 bitrate=N/A speed=15.8x    frame= 1397 fps=386 q=-0.0 size=N/A time=00:00:58.26 bitrate=N/A speed=16.1x    frame= 1616 fps=390 q=-0.0 size=N/A time=00:01:07.40 bitrate=N/A speed=16.3x    frame= 1764 fps=379 q=-0.0 size=N/A time=00:01:13.57 bitrate=N/A speed=15.8x    frame= 1907 fps=368 q=-0.0 size=N/A time=00:01:19.53 bitrate=N/A speed=15.4x    frame= 2094 fps=368 q=-0.0 size=N/A time=00:01:27.33 bitrate=N/A speed=15.4x    frame= 2276 fps=367 q=-0.0 size=N/A time=00:01:34.92 bitrate=N/A speed=15.3x    frame= 2480 fps=369 q=-0.0 size=N/A time=00:01:43.43 bitrate=N/A speed=15.4x    frame= 2718 fps=376 q=-0.0 size=N/A time=00:01:53.36 bitrate=N/A speed=15.7x    frame= 2971 fps=384 q=-0.0 size=N/A time=00:02:03.91 bitrate=N/A speed=  16x    frame= 3222 fps=390 q=-0.0 size=N/A time=00:02:14.38 bitrate=N/A speed=16.3x    frame= 3436 fps=391 q=-0.0 size=N/A time=00:02:23.30 bitrate=N/A speed=16.3x    frame= 3659 fps=393 q=-0.0 size=N/A time=00:02:32.61 bitrate=N/A speed=16.4x    frame= 3896 fps=397 q=-0.0 size=N/A time=00:02:42.49 bitrate=N/A speed=16.6x    frame= 4142 fps=401 q=-0.0 size=N/A time=00:02:52.75 bitrate=N/A speed=16.7x    frame= 4410 fps=406 q=-0.0 size=N/A time=00:03:03.93 bitrate=N/A speed=  17x    frame= 4672 fps=411 q=-0.0 size=N/A time=00:03:14.86 bitrate=N/A speed=17.2x    frame= 4924 fps=415 q=-0.0 size=N/A time=00:03:25.37 bitrate=N/A speed=17.3x    frame= 5180 fps=418 q=-0.0 size=N/A time=00:03:36.04 bitrate=N/A speed=17.4x    frame= 5432 fps=421 q=-0.0 size=N/A time=00:03:46.55 bitrate=N/A speed=17.6x    frame= 5688 fps=424 q=-0.0 size=N/A time=00:03:57.23 bitrate=N/A speed=17.7x    frame= 5887 fps=422 q=-0.0 size=N/A time=00:04:05.53 bitrate=N/A speed=17.6x    frame= 6107 fps=423 q=-0.0 size=N/A time=00:04:14.71 bitrate=N/A speed=17.6x    frame= 6376 fps=426 q=-0.0 size=N/A time=00:04:25.93 bitrate=N/A speed=17.8x    frame= 6618 fps=427 q=-0.0 size=N/A time=00:04:36.02 bitrate=N/A speed=17.8x    frame= 6830 fps=427 q=-0.0 size=N/A time=00:04:44.86 bitrate=N/A speed=17.8x    frame= 7039 fps=426 q=-0.0 size=N/A time=00:04:53.58 bitrate=N/A speed=17.8x    frame= 7268 fps=427 q=-0.0 size=N/A time=00:05:03.13 bitrate=N/A speed=17.8x    frame= 7501 fps=428 q=-0.0 size=N/A time=00:05:12.85 bitrate=N/A speed=17.8x    frame= 7711 fps=427 q=-0.0 size=N/A time=00:05:21.61 bitrate=N/A speed=17.8x    frame= 7875 fps=424 q=-0.0 size=N/A time=00:05:28.45 bitrate=N/A speed=17.7x    frame= 8077 fps=423 q=-0.0 size=N/A time=00:05:36.87 bitrate=N/A speed=17.6x    frame= 8254 fps=421 q=-0.0 size=N/A time=00:05:44.26 bitrate=N/A speed=17.6x    frame= 8503 fps=422 q=-0.0 size=N/A time=00:05:54.64 bitrate=N/A speed=17.6x    frame= 8739 fps=423 q=-0.0 size=N/A time=00:06:04.48 bitrate=N/A speed=17.7x    frame= 8962 fps=424 q=-0.0 size=N/A time=00:06:13.79 bitrate=N/A speed=17.7x    frame= 9183 fps=424 q=-0.0 size=N/A time=00:06:23.00 bitrate=N/A speed=17.7x    frame= 9373 fps=422 q=-0.0 size=N/A time=00:06:30.93 bitrate=N/A speed=17.6x    frame= 9604 fps=423 q=-0.0 size=N/A time=00:06:40.56 bitrate=N/A speed=17.6x    frame= 9810 fps=422 q=-0.0 size=N/A time=00:06:49.15 bitrate=N/A speed=17.6x    frame=10009 fps=422 q=-0.0 size=N/A time=00:06:57.45 bitrate=N/A speed=17.6x    frame=10222 fps=421 q=-0.0 size=N/A time=00:07:06.34 bitrate=N/A speed=17.6x    frame=10450 fps=422 q=-0.0 size=N/A time=00:07:15.85 bitrate=N/A speed=17.6x    frame=10665 fps=422 q=-0.0 size=N/A time=00:07:24.81 bitrate=N/A speed=17.6x    frame=10912 fps=423 q=-0.0 size=N/A time=00:07:35.12 bitrate=N/A speed=17.6x    frame=11170 fps=425 q=-0.0 size=N/A time=00:07:45.88 bitrate=N/A speed=17.7x    frame=11417 fps=426 q=-0.0 size=N/A time=00:07:56.18 bitrate=N/A speed=17.8x    frame=11614 fps=425 q=-0.0 size=N/A time=00:08:04.40 bitrate=N/A speed=17.7x    frame=11875 fps=426 q=-0.0 size=N/A time=00:08:15.28 bitrate=N/A speed=17.8x    frame=12120 fps=427 q=-0.0 size=N/A time=00:08:25.50 bitrate=N/A speed=17.8x    frame=12375 fps=428 q=-0.0 size=N/A time=00:08:36.14 bitrate=N/A speed=17.9x    frame=12608 fps=428 q=-0.0 size=N/A time=00:08:45.90 bitrate=N/A speed=17.9x    frame=12866 fps=430 q=-0.0 size=N/A time=00:08:56.66 bitrate=N/A speed=17.9x    frame=13135 fps=431 q=-0.0 size=N/A time=00:09:07.83 bitrate=N/A speed=  18x    frame=13386 fps=432 q=-0.0 size=N/A time=00:09:18.30 bitrate=N/A speed=  18x    frame=13644 fps=433 q=-0.0 size=N/A time=00:09:29.06 bitrate=N/A speed=18.1x    frame=13873 fps=434 q=-0.0 size=N/A time=00:09:38.61 bitrate=N/A speed=18.1x    frame=14074 fps=433 q=-0.0 size=N/A time=00:09:47.00 bitrate=N/A speed=18.1x    frame=14307 fps=433 q=-0.0 size=N/A time=00:09:56.72 bitrate=N/A speed=18.1x    frame=14568 fps=434 q=-0.0 size=N/A time=00:10:07.60 bitrate=N/A speed=18.1x    frame=14757 fps=433 q=-0.0 size=N/A time=00:10:15.48 bitrate=N/A speed=18.1x    frame=15010 fps=434 q=-0.0 size=N/A time=00:10:26.04 bitrate=N/A speed=18.1x    frame=15241 fps=434 q=-0.0 size=N/A time=00:10:35.67 bitrate=N/A speed=18.1x    frame=15490 fps=435 q=-0.0 size=N/A time=00:10:46.06 bitrate=N/A speed=18.1x    frame=15729 fps=435 q=-0.0 size=N/A time=00:10:56.03 bitrate=N/A speed=18.2x    frame=15957 fps=436 q=-0.0 size=N/A time=00:11:05.53 bitrate=N/A speed=18.2x    frame=16208 fps=436 q=-0.0 size=N/A time=00:11:16.00 bitrate=N/A speed=18.2x    frame=16462 fps=437 q=-0.0 size=N/A time=00:11:26.60 bitrate=N/A speed=18.2x    frame=16685 fps=437 q=-0.0 size=N/A time=00:11:35.90 bitrate=N/A speed=18.2x    frame=16929 fps=437 q=-0.0 size=N/A time=00:11:46.08 bitrate=N/A speed=18.2x    frame=17195 fps=438 q=-0.0 size=N/A time=00:11:57.17 bitrate=N/A speed=18.3x    frame=17447 fps=439 q=-0.0 size=N/A time=00:12:07.68 bitrate=N/A speed=18.3x    frame=17688 fps=439 q=-0.0 size=N/A time=00:12:17.73 bitrate=N/A speed=18.3x    frame=17882 fps=439 q=-0.0 size=N/A time=00:12:25.82 bitrate=N/A speed=18.3x    frame=18094 fps=438 q=-0.0 size=N/A time=00:12:34.67 bitrate=N/A speed=18.3x    frame=18336 fps=439 q=-0.0 size=N/A time=00:12:44.76 bitrate=N/A speed=18.3x    frame=18541 fps=438 q=-0.0 size=N/A time=00:12:53.31 bitrate=N/A speed=18.3x    frame=18805 fps=439 q=-0.0 size=N/A time=00:13:04.32 bitrate=N/A speed=18.3x    frame=19024 fps=439 q=-0.0 size=N/A time=00:13:13.45 bitrate=N/A speed=18.3x    frame=19261 fps=439 q=-0.0 size=N/A time=00:13:23.34 bitrate=N/A speed=18.3x    frame=19525 fps=440 q=-0.0 size=N/A time=00:13:34.35 bitrate=N/A speed=18.3x    frame=19779 fps=441 q=-0.0 size=N/A time=00:13:44.94 bitrate=N/A speed=18.4x    frame=20009 fps=441 q=-0.0 size=N/A time=00:13:54.54 bitrate=N/A speed=18.4x    frame=20245 fps=441 q=-0.0 size=N/A time=00:14:04.38 bitrate=N/A speed=18.4x    frame=20515 fps=442 q=-0.0 size=N/A time=00:14:15.64 bitrate=N/A speed=18.4x    frame=20791 fps=443 q=-0.0 size=N/A time=00:14:27.15 bitrate=N/A speed=18.5x    frame=21070 fps=444 q=-0.0 size=N/A time=00:14:38.79 bitrate=N/A speed=18.5x    frame=21341 fps=445 q=-0.0 size=N/A time=00:14:50.09 bitrate=N/A speed=18.5x    frame=21575 fps=445 q=-0.0 size=N/A time=00:14:59.85 bitrate=N/A speed=18.5x    frame=21827 fps=445 q=-0.0 size=N/A time=00:15:10.36 bitrate=N/A speed=18.6x    frame=22053 fps=445 q=-0.0 size=N/A time=00:15:19.79 bitrate=N/A speed=18.6x    frame=22319 fps=446 q=-0.0 size=N/A time=00:15:30.88 bitrate=N/A speed=18.6x    frame=22573 fps=446 q=-0.0 size=N/A time=00:15:41.48 bitrate=N/A speed=18.6x    frame=22806 fps=446 q=-0.0 size=N/A time=00:15:51.20 bitrate=N/A speed=18.6x    frame=23095 fps=447 q=-0.0 size=N/A time=00:16:03.25 bitrate=N/A speed=18.7x    frame=23343 fps=448 q=-0.0 size=N/A time=00:16:13.59 bitrate=N/A speed=18.7x    frame=23601 fps=448 q=-0.0 size=N/A time=00:16:24.35 bitrate=N/A speed=18.7x    frame=23860 fps=449 q=-0.0 size=N/A time=00:16:35.16 bitrate=N/A speed=18.7x    frame=24088 fps=449 q=-0.0 size=N/A time=00:16:44.67 bitrate=N/A speed=18.7x    frame=24297 fps=448 q=-0.0 size=N/A time=00:16:53.38 bitrate=N/A speed=18.7x    frame=24543 fps=449 q=-0.0 size=N/A time=00:17:03.64 bitrate=N/A speed=18.7x    frame=24776 fps=449 q=-0.0 size=N/A time=00:17:13.36 bitrate=N/A speed=18.7x    frame=25061 fps=450 q=-0.0 size=N/A time=00:17:25.25 bitrate=N/A speed=18.8x    frame=25229 fps=449 q=-0.0 size=N/A time=00:17:32.25 bitrate=N/A speed=18.7x    frame=25434 fps=448 q=-0.0 size=N/A time=00:17:40.80 bitrate=N/A speed=18.7x    frame=25638 fps=448 q=-0.0 size=N/A time=00:17:49.31 bitrate=N/A speed=18.7x    frame=25855 fps=447 q=-0.0 size=N/A time=00:17:58.36 bitrate=N/A speed=18.7x    frame=26020 fps=446 q=-0.0 size=N/A time=00:18:05.25 bitrate=N/A speed=18.6x    frame=26237 fps=446 q=-0.0 size=N/A time=00:18:14.30 bitrate=N/A speed=18.6x    frame=26441 fps=446 q=-0.0 size=N/A time=00:18:22.81 bitrate=N/A speed=18.6x    frame=26624 fps=445 q=-0.0 size=N/A time=00:18:30.44 bitrate=N/A speed=18.5x    frame=26844 fps=445 q=-0.0 size=N/A time=00:18:39.61 bitrate=N/A speed=18.5x    frame=27074 fps=445 q=-0.0 size=N/A time=00:18:49.21 bitrate=N/A speed=18.5x    frame=27292 fps=444 q=-0.0 size=N/A time=00:18:58.30 bitrate=N/A speed=18.5x    frame=27550 fps=445 q=-0.0 size=N/A time=00:19:09.06 bitrate=N/A speed=18.6x    frame=27790 fps=445 q=-0.0 size=N/A time=00:19:19.07 bitrate=N/A speed=18.6x    frame=28048 fps=446 q=-0.0 size=N/A time=00:19:29.83 bitrate=N/A speed=18.6x    frame=28254 fps=445 q=-0.0 size=N/A time=00:19:38.42 bitrate=N/A speed=18.6x    frame=28432 fps=444 q=-0.0 size=N/A time=00:19:45.85 bitrate=N/A speed=18.5x    frame=28685 fps=445 q=-0.0 size=N/A time=00:19:56.40 bitrate=N/A speed=18.5x    frame=28939 fps=445 q=-0.0 size=N/A time=00:20:06.99 bitrate=N/A speed=18.6x    frame=29180 fps=445 q=-0.0 size=N/A time=00:20:17.04 bitrate=N/A speed=18.6x    frame=29440 fps=446 q=-0.0 size=N/A time=00:20:27.89 bitrate=N/A speed=18.6x    frame=29714 fps=446 q=-0.0 size=N/A time=00:20:39.32 bitrate=N/A speed=18.6x    frame=30004 fps=447 q=-0.0 size=N/A time=00:20:51.41 bitrate=N/A speed=18.7x    frame=30244 fps=447 q=-0.0 size=N/A time=00:21:01.42 bitrate=N/A speed=18.7x    frame=30437 fps=447 q=-0.0 size=N/A time=00:21:09.47 bitrate=N/A speed=18.6x    frame=30694 fps=447 q=-0.0 size=N/A time=00:21:20.19 bitrate=N/A speed=18.7x    frame=30974 fps=448 q=-0.0 size=N/A time=00:21:31.87 bitrate=N/A speed=18.7x    frame=31209 fps=448 q=-0.0 size=N/A time=00:21:41.67 bitrate=N/A speed=18.7x    frame=31456 fps=448 q=-0.0 size=N/A time=00:21:51.97 bitrate=N/A speed=18.7x    frame=31648 fps=448 q=-0.0 size=N/A time=00:21:59.98 bitrate=N/A speed=18.7x    frame=31860 fps=447 q=-0.0 size=N/A time=00:22:08.82 bitrate=N/A speed=18.7x    frame=32071 fps=447 q=-0.0 size=N/A time=00:22:17.62 bitrate=N/A speed=18.7x    frame=32310 fps=447 q=-0.0 size=N/A time=00:22:27.59 bitrate=N/A speed=18.7x    frame=32536 fps=447 q=-0.0 size=N/A time=00:22:37.02 bitrate=N/A speed=18.7x    frame=32771 fps=447 q=-0.0 size=N/A time=00:22:46.82 bitrate=N/A speed=18.7x    frame=33024 fps=448 q=-0.0 size=N/A time=00:22:57.37 bitrate=N/A speed=18.7x    frame=33256 fps=448 q=-0.0 size=N/A time=00:23:07.05 bitrate=N/A speed=18.7x    frame=33477 fps=447 q=-0.0 size=N/A time=00:23:16.26 bitrate=N/A speed=18.7x    frame=33689 fps=447 q=-0.0 size=N/A time=00:23:25.11 bitrate=N/A speed=18.7x    frame=33881 fps=447 q=-0.0 size=N/A time=00:23:33.12 bitrate=N/A speed=18.6x    frame=34139 fps=447 q=-0.0 size=N/A time=00:23:43.88 bitrate=N/A speed=18.6x    frame=34372 fps=447 q=-0.0 size=N/A time=00:23:53.59 bitrate=N/A speed=18.6x    frame=34577 fps=447 q=-0.0 size=N/A time=00:24:02.14 bitrate=N/A speed=18.6x    frame=34779 fps=446 q=-0.0 size=N/A time=00:24:10.57 bitrate=N/A speed=18.6x    [Parsed_psnr_10 @ 000001faae266840] PSNR y:47.811309 u:49.899493 v:50.226972 average:48.439773 min:40.163879 max:inf
[out#0/null @ 000001faabff4200] video:15037KiB audio:273884KiB subtitle:0KiB other streams:0KiB global headers:0KiB muxing overhead: unknown
frame=34995 fps=447 q=-0.0 Lsize=N/A time=00:24:19.58 bitrate=N/A speed=18.6x    
